<svg width="18" height="17" viewBox="0 0 18 17" fill="none" xmlns="http://www.w3.org/2000/svg">
<g filter="url(#filter0_d)">
<path d="M15.9891 14.0205L11.424 9.45547C12.1324 8.53965 12.5156 7.41992 12.5156 6.24219C12.5156 4.83242 11.9654 3.51055 10.9705 2.51387C9.97559 1.51719 8.6502 0.96875 7.24219 0.96875C5.83418 0.96875 4.50879 1.51895 3.51387 2.51387C2.51719 3.50879 1.96875 4.83242 1.96875 6.24219C1.96875 7.6502 2.51895 8.97559 3.51387 9.97051C4.50879 10.9672 5.83242 11.5156 7.24219 11.5156C8.41992 11.5156 9.53789 11.1324 10.4537 10.4258L15.0188 14.9891C15.0321 15.0025 15.048 15.0131 15.0655 15.0203C15.083 15.0276 15.1018 15.0313 15.1207 15.0313C15.1396 15.0313 15.1584 15.0276 15.1759 15.0203C15.1934 15.0131 15.2093 15.0025 15.2227 14.9891L15.9891 14.2244C16.0025 14.211 16.0131 14.1951 16.0203 14.1776C16.0276 14.1601 16.0313 14.1414 16.0313 14.1225C16.0313 14.1035 16.0276 14.0848 16.0203 14.0673C16.0131 14.0498 16.0025 14.0339 15.9891 14.0205V14.0205ZM10.0266 9.02656C9.28125 9.77012 8.29336 10.1797 7.24219 10.1797C6.19102 10.1797 5.20313 9.77012 4.45781 9.02656C3.71426 8.28125 3.30469 7.29336 3.30469 6.24219C3.30469 5.19102 3.71426 4.20137 4.45781 3.45781C5.20313 2.71426 6.19102 2.30469 7.24219 2.30469C8.29336 2.30469 9.28301 2.7125 10.0266 3.45781C10.7701 4.20313 11.1797 5.19102 11.1797 6.24219C11.1797 7.29336 10.7701 8.28301 10.0266 9.02656Z" fill="#8C8C8C"/>
</g>
<defs>
<filter id="filter0_d" x="-2.03125" y="0.96875" width="22.0626" height="22.0626" filterUnits="userSpaceOnUse" color-interpolation-filters="sRGB">
<feFlood flood-opacity="0" result="BackgroundImageFix"/>
<feColorMatrix in="SourceAlpha" type="matrix" values="0 0 0 0 0 0 0 0 0 0 0 0 0 0 0 0 0 0 127 0"/>
<feOffset dy="4"/>
<feGaussianBlur stdDeviation="2"/>
<feColorMatrix type="matrix" values="0 0 0 0 0 0 0 0 0 0 0 0 0 0 0 0 0 0 0.25 0"/>
<feBlend mode="normal" in2="BackgroundImageFix" result="effect1_dropShadow"/>
<feBlend mode="normal" in="SourceGraphic" in2="effect1_dropShadow" result="shape"/>
</filter>
</defs>
</svg>
